<?xml version="1.0" standalone="no"?><!DOCTYPE svg PUBLIC "-//W3C//DTD SVG 1.1//EN" "http://www.w3.org/Graphics/SVG/1.1/DTD/svg11.dtd"><svg class="icon" width="32px" height="32.00px" viewBox="0 0 1024 1024" version="1.1" xmlns="http://www.w3.org/2000/svg"><path fill="#333333" d="M578.36284173 512l422.30899284-422.30899284c18.09895683-18.09895683 18.09895683-48.2638849 0-66.36284173-18.09895683-18.09895683-48.2638849-18.09895683-66.36284173 0l-422.30899284 422.30899284-422.30899284-422.30899284c-18.09895683-18.09895683-48.2638849-18.09895683-66.36284173 0-18.09895683 18.09895683-18.09895683 48.2638849 0 66.36284173l422.30899284 422.30899284-422.30899284 422.30899284c-18.09895683 18.09895683-18.09895683 48.2638849 0 66.36284173 18.09895683 18.09895683 48.2638849 18.09895683 66.36284173 0l422.30899284-422.30899284 422.30899284 422.30899284c18.09895683 18.09895683 48.2638849 18.09895683 66.36284173 0 18.09895683-18.09895683 18.09895683-48.2638849 0-66.36284173l-422.30899284-422.30899284z" /></svg>