<?xml version="1.0" standalone="no"?><!DOCTYPE svg PUBLIC "-//W3C//DTD SVG 1.1//EN" "http://www.w3.org/Graphics/SVG/1.1/DTD/svg11.dtd"><svg class="icon" width="32px" height="32.00px" viewBox="0 0 1024 1024" version="1.1" xmlns="http://www.w3.org/2000/svg"><path fill="#333333" d="M739.95130434 284.04869566v658.32336695H81.62793739V284.04869566h658.32336695m0.60787015-75.98376812H80.4121971c-41.33516985 0-75.37589797 33.43285797-75.37589797 75.37589797V943.5878029c0 41.33516985 33.43285797 75.37589797 75.37589797 75.37589797h660.14697739c41.33516985 0 75.37589797-33.43285797 75.37589797-75.37589797V283.44082551c0-41.94304-33.43285797-75.37589797-75.37589797-75.37589797z"  /><path fill="#333333" d="M944.19567304 5.64416928H282.83295536c-41.33516985 0-74.16015768 33.43285797-74.76802782 74.16015768v77.1995084h75.98376812V81.62793739h658.32336695v658.32336695h-75.98376812V815.93507246H943.5878029c41.33516985 0 74.16015768-33.43285797 74.76802782-74.76802782V79.80432696c0-40.72729971-33.43285797-74.16015768-74.16015768-74.16015768z"  /></svg>